<svg width="944.767" height="658.141" viewBox="0 0 708.576 493.606" xmlns="http://www.w3.org/2000/svg" xmlns:xlink="http://www.w3.org/1999/xlink" stroke-linejoin="round" overflow="hidden"><defs></defs><defs><clipPath id="pb0c75235db"><rect x="56.8156" y="9.06413" width="304.055" height="443.467"/></clipPath><clipPath id="p33966db76a"><rect x="397.32" y="9.06413" width="304.055" height="443.467"/></clipPath></defs><g id="figure_1"><g id="patch_1"><path d="M0 493.606 708.576 493.606 708.576 0 0 0Z" fill="#FFFFFF"/></g><g id="axes_1"><g id="patch_2"><path d="M56.8156 452.531 360.871 452.531 360.871 9.06413 56.8156 9.06413Z" fill="#FFFFFF"/></g><g id="PathCollection_1"><defs><path d="M0 2.73861C0.726289 2.73861 1.42293 2.45005 1.93649 1.93649 2.45005 1.42293 2.73861 0.726289 2.73861 0 2.73861-0.726289 2.45005-1.42293 1.93649-1.93649 1.42293-2.45005 0.726289-2.73861 0-2.73861-0.726289-2.73861-1.42293-2.45005-1.93649-1.93649-2.45005-1.42293-2.73861-0.726289-2.73861 0-2.73861 0.726289-2.45005 1.42293-1.93649 1.93649-1.42293 2.45005-0.726289 2.73861 0 2.73861Z" id="m980eb3ef47" stroke="#FF0000" stroke-opacity="0.7"/></defs><g clip-path="url(#pb0c75235db)"><use x="187.179" y="406.472" width="100%" height="100%" xlink:href="#m980eb3ef47" stroke="#FF0000" stroke-opacity="0.7" fill="#FF0000" fill-opacity="0.7"></use><use x="205.852" y="152.788" width="100%" height="100%" xlink:href="#m980eb3ef47" stroke="#FF0000" stroke-opacity="0.7" fill="#FF0000" fill-opacity="0.7"></use><use x="182.638" y="235.368" width="100%" height="100%" xlink:href="#m980eb3ef47" stroke="#FF0000" stroke-opacity="0.7" fill="#FF0000" fill-opacity="0.7"></use><use x="203.069" y="278.792" width="100%" height="100%" xlink:href="#m980eb3ef47" stroke="#FF0000" stroke-opacity="0.7" fill="#FF0000" fill-opacity="0.7"></use><use x="221.91" y="338.289" width="100%" height="100%" xlink:href="#m980eb3ef47" stroke="#FF0000" stroke-opacity="0.7" fill="#FF0000" fill-opacity="0.7"></use><use x="183.113" y="370.057" width="100%" height="100%" xlink:href="#m980eb3ef47" stroke="#FF0000" stroke-opacity="0.7" fill="#FF0000" fill-opacity="0.7"></use><use x="236.707" y="431.535" width="100%" height="100%" xlink:href="#m980eb3ef47" stroke="#FF0000" stroke-opacity="0.7" fill="#FF0000" fill-opacity="0.7"></use><use x="229.14" y="29.2217" width="100%" height="100%" xlink:href="#m980eb3ef47" stroke="#FF0000" stroke-opacity="0.7" fill="#FF0000" fill-opacity="0.7"></use><use x="208.662" y="64.3413" width="100%" height="100%" xlink:href="#m980eb3ef47" stroke="#FF0000" stroke-opacity="0.7" fill="#FF0000" fill-opacity="0.7"></use><use x="226.7" y="30.2882" width="100%" height="100%" xlink:href="#m980eb3ef47" stroke="#FF0000" stroke-opacity="0.7" fill="#FF0000" fill-opacity="0.7"></use><use x="181.182" y="368.381" width="100%" height="100%" xlink:href="#m980eb3ef47" stroke="#FF0000" stroke-opacity="0.7" fill="#FF0000" fill-opacity="0.7"></use><use x="236.596" y="111.421" width="100%" height="100%" xlink:href="#m980eb3ef47" stroke="#FF0000" stroke-opacity="0.7" fill="#FF0000" fill-opacity="0.7"></use><use x="203.319" y="152.788" width="100%" height="100%" xlink:href="#m980eb3ef47" stroke="#FF0000" stroke-opacity="0.7" fill="#FF0000" fill-opacity="0.7"></use><use x="184.993" y="236.359" width="100%" height="100%" xlink:href="#m980eb3ef47" stroke="#FF0000" stroke-opacity="0.7" fill="#FF0000" fill-opacity="0.7"></use><use x="213.503" y="65.5602" width="100%" height="100%" xlink:href="#m980eb3ef47" stroke="#FF0000" stroke-opacity="0.7" fill="#FF0000" fill-opacity="0.7"></use><use x="191.177" y="280.163" width="100%" height="100%" xlink:href="#m980eb3ef47" stroke="#FF0000" stroke-opacity="0.7" fill="#FF0000" fill-opacity="0.7"></use><use x="190.301" y="406.472" width="100%" height="100%" xlink:href="#m980eb3ef47" stroke="#FF0000" stroke-opacity="0.7" fill="#FF0000" fill-opacity="0.7"></use><use x="241.728" y="431.535" width="100%" height="100%" xlink:href="#m980eb3ef47" stroke="#FF0000" stroke-opacity="0.7" fill="#FF0000" fill-opacity="0.7"></use><use x="225.78" y="29.2217" width="100%" height="100%" xlink:href="#m980eb3ef47" stroke="#FF0000" stroke-opacity="0.7" fill="#FF0000" fill-opacity="0.7"></use><use x="238" y="110.355" width="100%" height="100%" xlink:href="#m980eb3ef47" stroke="#FF0000" stroke-opacity="0.7" fill="#FF0000" fill-opacity="0.7"></use><use x="183.71" y="370.057" width="100%" height="100%" xlink:href="#m980eb3ef47" stroke="#FF0000" stroke-opacity="0.7" fill="#FF0000" fill-opacity="0.7"></use><use x="204.436" y="150.883" width="100%" height="100%" xlink:href="#m980eb3ef47" stroke="#FF0000" stroke-opacity="0.7" fill="#FF0000" fill-opacity="0.7"></use><use x="226.242" y="339.508" width="100%" height="100%" xlink:href="#m980eb3ef47" stroke="#FF0000" stroke-opacity="0.7" fill="#FF0000" fill-opacity="0.7"></use><use x="186.558" y="407.233" width="100%" height="100%" xlink:href="#m980eb3ef47" stroke="#FF0000" stroke-opacity="0.7" fill="#FF0000" fill-opacity="0.7"></use><use x="182.732" y="137.399" width="100%" height="100%" xlink:href="#m980eb3ef47" stroke="#FF0000" stroke-opacity="0.7" fill="#FF0000" fill-opacity="0.7"></use><use x="236.747" y="432.373" width="100%" height="100%" xlink:href="#m980eb3ef47" stroke="#FF0000" stroke-opacity="0.7" fill="#FF0000" fill-opacity="0.7"></use><use x="238.688" y="110.355" width="100%" height="100%" xlink:href="#m980eb3ef47" stroke="#FF0000" stroke-opacity="0.7" fill="#FF0000" fill-opacity="0.7"></use><use x="181.218" y="136.409" width="100%" height="100%" xlink:href="#m980eb3ef47" stroke="#FF0000" stroke-opacity="0.7" fill="#FF0000" fill-opacity="0.7"></use><use x="182.834" y="235.368" width="100%" height="100%" xlink:href="#m980eb3ef47" stroke="#FF0000" stroke-opacity="0.7" fill="#FF0000" fill-opacity="0.7"></use><use x="183.175" y="136.409" width="100%" height="100%" xlink:href="#m980eb3ef47" stroke="#FF0000" stroke-opacity="0.7" fill="#FF0000" fill-opacity="0.7"></use><use x="224.061" y="338.289" width="100%" height="100%" xlink:href="#m980eb3ef47" stroke="#FF0000" stroke-opacity="0.7" fill="#FF0000" fill-opacity="0.7"></use><use x="208.402" y="64.3413" width="100%" height="100%" xlink:href="#m980eb3ef47" stroke="#FF0000" stroke-opacity="0.7" fill="#FF0000" fill-opacity="0.7"></use><use x="194.304" y="278.792" width="100%" height="100%" xlink:href="#m980eb3ef47" stroke="#FF0000" stroke-opacity="0.7" fill="#FF0000" fill-opacity="0.7"></use></g></g><g id="matplotlib.axis_1"><g id="xtick_1"><g id="line2d_1"><path d="M69.9317 452.531 69.9317 9.06413" stroke="#B0B0B0" stroke-width="0.8" stroke-dasharray="2.96 1.28" stroke-opacity="0.3" fill="none" clip-path="url(#pb0c75235db)"/></g><g id="line2d_2"><defs><path d="M0 0 0 3.5" id="m1e03ccbb23" stroke="#000000" stroke-width="0.8"/></defs><g><use x="69.9317" y="452.531" width="100%" height="100%" xlink:href="#m1e03ccbb23" stroke="#000000" stroke-width="0.8"></use></g></g><g id="text_1"><g transform="matrix(0.12 0 0 -0.12 56.4542 468.531)"><defs><path d="M3359 0 378 0 378 416 1953 2166C2186.33 2430.67 2347.33 2645.67 2436 2811 2524.67 2976.33 2569 3147.67 2569 3325 2569 3562.33 2497 3757 2353 3909 2209.67 4061.67 2018 4138 1778 4138 1490.67 4138 1267.33 4056 1108 3892 948.667 3728.67 869 3501 869 3209L291 3209C291 3628.33 425.667 3967 695 4225 965 4483.67 1326 4613 1778 4613 2201.33 4613 2535.67 4502 2781 4280 3027 4058 3150 3762.67 3150 3394 3150 2946 2864.67 2412.67 2294 1794L1075 472 3359 472 3359 0Z" id="Roboto-Regular-32" transform="scale(0.015625 0.015625)"/><path d="M3231 1941C3231 1263.67 3115.33 760.333 2884 431 2653.33 101.667 2292-63 1800-63 1314.67-63 955.333 98 722 420 488.667 742 367.667 1223 359 1863L359 2634C359 3303.33 474.667 3800.33 706 4125 937.333 4450.33 1300 4613 1794 4613 2283.33 4613 2643.67 4456 2875 4142 3106.33 3828.67 3225 3345 3231 2691L3231 1941ZM2653 2731C2653 3221 2584.33 3578 2447 3802 2309.67 4026 2092 4138 1794 4138 1498 4138 1282.33 4026.33 1147 3803 1011.67 3580.33 942 3237.67 938 2775L938 1850C938 1358.67 1009.33 995.667 1152 761 1294.67 526.333 1510.67 409 1800 409 2085.33 409 2297.33 519.333 2436 740 2574.67 961.333 2647 1309.33 2653 1784L2653 2731Z" id="Roboto-Regular-30" transform="scale(0.015625 0.015625)"/></defs><use width="100%" height="100%" xlink:href="#Roboto-Regular-32"></use><use width="100%" height="100%" xlink:href="#Roboto-Regular-30" transform="translate(56.1523 0)"></use><use width="100%" height="100%" xlink:href="#Roboto-Regular-30" transform="translate(112.305 0)"></use><use width="100%" height="100%" xlink:href="#Roboto-Regular-30" transform="translate(168.457 0)"></use></g></g></g><g id="xtick_2"><g id="line2d_3"><path d="M125.954 452.531 125.954 9.06413" stroke="#B0B0B0" stroke-width="0.8" stroke-dasharray="2.96 1.28" stroke-opacity="0.3" fill="none" clip-path="url(#pb0c75235db)"/></g><g id="line2d_4"><g><use x="125.954" y="452.531" width="100%" height="100%" xlink:href="#m1e03ccbb23" stroke="#000000" stroke-width="0.8"></use></g></g><g id="text_2"><g transform="matrix(0.12 0 0 -0.12 112.477 468.531)"><defs><path d="M1219 2556 1653 2556C1926.33 2560.67 2141 2632.67 2297 2772 2453 2911.33 2531 3100 2531 3338 2531 3871.33 2265.33 4138 1734 4138 1484 4138 1284.67 4066.33 1136 3923 987.333 3780.33 913 3591.33 913 3356L334 3356C334 3716.67 465.667 4016.33 729 4255 993 4493.67 1328 4613 1734 4613 2163.33 4613 2499.67 4499.33 2743 4272 2987 4044.67 3109 3729 3109 3325 3109 3127 3045 2935.33 2917 2750 2789 2564.67 2614.67 2426 2394 2334 2644 2255.33 2837 2124.33 2973 1941 3109.67 1757.67 3178 1533.67 3178 1269 3178 860.333 3044.67 536 2778 296 2511.33 56.6667 2164.33-63 1737-63 1310.33-63 963 52.6667 695 284 427.667 515.333 294 820.667 294 1200L875 1200C875 960.667 953 769 1109 625 1265.67 481 1475.33 409 1738 409 2016.67 409 2230 482 2378 628 2526 774 2600 983.333 2600 1256 2600 1520.67 2518.67 1723.67 2356 1865 2194 2007 1959.67 2080 1653 2084L1219 2084 1219 2556Z" id="Roboto-Regular-33" transform="scale(0.015625 0.015625)"/></defs><use width="100%" height="100%" xlink:href="#Roboto-Regular-33"></use><use width="100%" height="100%" xlink:href="#Roboto-Regular-30" transform="translate(56.1523 0)"></use><use width="100%" height="100%" xlink:href="#Roboto-Regular-30" transform="translate(112.305 0)"></use><use width="100%" height="100%" xlink:href="#Roboto-Regular-30" transform="translate(168.457 0)"></use></g></g></g><g id="xtick_3"><g id="line2d_5"><path d="M181.977 452.531 181.977 9.06413" stroke="#B0B0B0" stroke-width="0.8" stroke-dasharray="2.96 1.28" stroke-opacity="0.3" fill="none" clip-path="url(#pb0c75235db)"/></g><g id="line2d_6"><g><use x="181.977" y="452.531" width="100%" height="100%" xlink:href="#m1e03ccbb23" stroke="#000000" stroke-width="0.8"></use></g></g><g id="text_3"><g transform="matrix(0.12 0 0 -0.12 168.5 468.531)"><defs><path d="M2819 1528 3450 1528 3450 1056 2819 1056 2819 0 2238 0 2238 1056 166 1056 166 1397 2203 4550 2819 4550 2819 1528ZM822 1528 2238 1528 2238 3759 2169 3634 822 1528Z" id="Roboto-Regular-34" transform="scale(0.015625 0.015625)"/></defs><use width="100%" height="100%" xlink:href="#Roboto-Regular-34"></use><use width="100%" height="100%" xlink:href="#Roboto-Regular-30" transform="translate(56.1523 0)"></use><use width="100%" height="100%" xlink:href="#Roboto-Regular-30" transform="translate(112.305 0)"></use><use width="100%" height="100%" xlink:href="#Roboto-Regular-30" transform="translate(168.457 0)"></use></g></g></g><g id="xtick_4"><g id="line2d_7"><path d="M238 452.531 238 9.06413" stroke="#B0B0B0" stroke-width="0.8" stroke-dasharray="2.96 1.28" stroke-opacity="0.3" fill="none" clip-path="url(#pb0c75235db)"/></g><g id="line2d_8"><g><use x="238" y="452.531" width="100%" height="100%" xlink:href="#m1e03ccbb23" stroke="#000000" stroke-width="0.8"></use></g></g><g id="text_4"><g transform="matrix(0.12 0 0 -0.12 224.522 468.531)"><defs><path d="M644 2281 875 4550 3206 4550 3206 4016 1366 4016 1228 2775C1451.33 2906.33 1704.67 2972 1988 2972 2402 2972 2731 2835 2975 2561 3219 2287 3341 1916.67 3341 1450 3341 981.333 3214.33 612 2961 342 2707.67 72 2354-63 1900-63 1498-63 1169.67 48.3333 915 271 661 494.333 516.333 803 481 1197L1028 1197C1063.33 936.333 1156 739.667 1306 607 1456 475 1654 409 1900 409 2168.67 409 2379.67 500.667 2533 684 2686.33 867.333 2763 1120.67 2763 1444 2763 1748 2680 1992 2514 2176 2348.67 2360.67 2128.33 2453 1853 2453 1601 2453 1403 2398 1259 2288L1106 2163 644 2281Z" id="Roboto-Regular-35" transform="scale(0.015625 0.015625)"/></defs><use width="100%" height="100%" xlink:href="#Roboto-Regular-35"></use><use width="100%" height="100%" xlink:href="#Roboto-Regular-30" transform="translate(56.1523 0)"></use><use width="100%" height="100%" xlink:href="#Roboto-Regular-30" transform="translate(112.305 0)"></use><use width="100%" height="100%" xlink:href="#Roboto-Regular-30" transform="translate(168.457 0)"></use></g></g></g><g id="xtick_5"><g id="line2d_9"><path d="M294.023 452.531 294.023 9.06413" stroke="#B0B0B0" stroke-width="0.8" stroke-dasharray="2.96 1.28" stroke-opacity="0.3" fill="none" clip-path="url(#pb0c75235db)"/></g><g id="line2d_10"><g><use x="294.023" y="452.531" width="100%" height="100%" xlink:href="#m1e03ccbb23" stroke="#000000" stroke-width="0.8"></use></g></g><g id="text_5"><g transform="matrix(0.12 0 0 -0.12 280.545 468.531)"><defs><path d="M2647 4553 2647 4063 2541 4063C2091 4054.33 1732.67 3920.67 1466 3662 1199.33 3404 1045 3040.67 1003 2572 1243 2846.67 1570 2984 1984 2984 2380 2984 2696.33 2844.33 2933 2565 3169.67 2286.33 3288 1926 3288 1484 3288 1015.33 3160.33 640.333 2905 359 2649.67 77.6667 2307.33-63 1878-63 1442.67-63 1089.67 104.333 819 439 548.333 773.667 413 1204.33 413 1731L413 1953C413 2790.33 591.333 3430.33 948 3873 1305.33 4316.33 1837.33 4543 2544 4553L2647 4553ZM1888 2503C1690 2503 1507.67 2443.67 1341 2325 1174.33 2206.33 1058.67 2057.33 994 1878L994 1666C994 1290.67 1078.33 988.333 1247 759 1415.67 530.333 1626 416 1878 416 2138.67 416 2343.33 511.667 2492 703 2641.33 895 2716 1146 2716 1456 2716 1768.67 2640.33 2021.33 2489 2214 2338.33 2406.67 2138 2503 1888 2503Z" id="Roboto-Regular-36" transform="scale(0.015625 0.015625)"/></defs><use width="100%" height="100%" xlink:href="#Roboto-Regular-36"></use><use width="100%" height="100%" xlink:href="#Roboto-Regular-30" transform="translate(56.1523 0)"></use><use width="100%" height="100%" xlink:href="#Roboto-Regular-30" transform="translate(112.305 0)"></use><use width="100%" height="100%" xlink:href="#Roboto-Regular-30" transform="translate(168.457 0)"></use></g></g></g><g id="xtick_6"><g id="line2d_11"><path d="M350.045 452.531 350.045 9.06413" stroke="#B0B0B0" stroke-width="0.8" stroke-dasharray="2.96 1.28" stroke-opacity="0.3" fill="none" clip-path="url(#pb0c75235db)"/></g><g id="line2d_12"><g><use x="350.045" y="452.531" width="100%" height="100%" xlink:href="#m1e03ccbb23" stroke="#000000" stroke-width="0.8"></use></g></g><g id="text_6"><g transform="matrix(0.12 0 0 -0.12 336.568 468.531)"><defs><path d="M3316 4225 1431 0 825 0 2703 4075 241 4075 241 4550 3316 4550 3316 4225Z" id="Roboto-Regular-37" transform="scale(0.015625 0.015625)"/></defs><use width="100%" height="100%" xlink:href="#Roboto-Regular-37"></use><use width="100%" height="100%" xlink:href="#Roboto-Regular-30" transform="translate(56.1523 0)"></use><use width="100%" height="100%" xlink:href="#Roboto-Regular-30" transform="translate(112.305 0)"></use><use width="100%" height="100%" xlink:href="#Roboto-Regular-30" transform="translate(168.457 0)"></use></g></g></g><g id="text_7"><g transform="matrix(0.12 0 0 -0.12 188.933 483.968)"><defs><path d="M2034 797 3334 4550 3991 4550 2303 0 1772 0 88 4550 741 4550 2034 797Z" id="Roboto-Regular-56" transform="scale(0.015625 0.015625)"/><path d="M3294 1653C3294 1138.33 3176.33 723.667 2941 409 2705.67 94.3333 2386.67-63 1984-63 1574-63 1251.33 67.3333 1016 328L1016-1300 438-1300 438 3381 966 3381 994 3006C1229.33 3298 1556.33 3444 1975 3444 2381 3444 2702.33 3290.67 2939 2984 3175.67 2678 3294 2252 3294 1706L3294 1653ZM2716 1719C2716 2100.33 2634.67 2401.33 2472 2622 2309.33 2842.67 2086.33 2953 1803 2953 1453 2953 1190.67 2798 1016 2488L1016 872C1188.67 563.333 1453 409 1809 409 2086.33 409 2306.67 519 2470 739 2634 959 2716 1285.67 2716 1719Z" id="Roboto-Regular-70" transform="scale(0.015625 0.015625)"/><path d="M419-906 91-681C286.333-408.333 388.333-127 397 163L397 684 963 684 963 231C963 21 911.333-189.333 808-400 704.667-610.667 575-779.333 419-906Z" id="Roboto-Regular-2c" transform="scale(0.015625 0.015625)"/><path d="" id="Roboto-Regular-20" transform="scale(0.015625 0.015625)"/><path d="M2384 766 3534 3381 4256 3381 4256 0 3678 0 3678 2459 2584 0 2184 0 1069 2513 1069 0 491 0 491 3381 1241 3381 2384 766Z" id="Roboto-Regular-43c" transform="scale(0.015625 0.015625)"/><path d="M553-391 56-391 1956 4550 2450 4550 553-391Z" id="Roboto-Regular-2f" transform="scale(0.015625 0.015625)"/><path d="M1794 409C2000 409 2180 471.333 2334 596 2488.67 721.333 2574.33 878 2591 1066L3138 1066C3127.33 872 3060.33 687.333 2937 512 2814.33 337.333 2650.33 197.667 2445 93 2240.33-11 2023.33-63 1794-63 1333.33-63 967 90.6667 695 398 423.667 705.333 288 1125.67 288 1659L288 1756C288 2085.33 348.333 2378 469 2634 589.667 2890.67 763 3089.67 989 3231 1215 3373 1482.33 3444 1791 3444 2169.67 3444 2484.67 3330.33 2736 3103 2987.33 2876.33 3121.33 2581.67 3138 2219L2591 2219C2574.33 2437.67 2491.33 2617.33 2342 2758 2193.33 2898.67 2009.67 2969 1791 2969 1497 2969 1269.33 2863 1108 2651 946.667 2439.67 866 2134 866 1734L866 1625C866 1235.67 946 935.667 1106 725 1266.67 514.333 1496 409 1794 409Z" id="Roboto-Regular-441" transform="scale(0.015625 0.015625)"/></defs><use width="100%" height="100%" xlink:href="#Roboto-Regular-56"></use><use width="100%" height="100%" xlink:href="#Roboto-Regular-70" transform="translate(63.623 0)"></use><use width="100%" height="100%" xlink:href="#Roboto-Regular-2c" transform="translate(119.727 0)"></use><use width="100%" height="100%" xlink:href="#Roboto-Regular-20" transform="translate(139.355 0)"></use><use width="100%" height="100%" xlink:href="#Roboto-Regular-43c" transform="translate(164.111 0)"></use><use width="100%" height="100%" xlink:href="#Roboto-Regular-2f" transform="translate(238.281 0)"></use><use width="100%" height="100%" xlink:href="#Roboto-Regular-441" transform="translate(279.492 0)"></use></g></g></g><g id="matplotlib.axis_2"><g id="ytick_1"><g id="line2d_13"><path d="M56.8156 11.7 360.871 11.7" stroke="#B0B0B0" stroke-width="0.8" stroke-dasharray="2.96 1.28" stroke-opacity="0.3" fill="none" clip-path="url(#pb0c75235db)"/></g><g id="line2d_14"><defs><path d="M0 0-3.5 0" id="ma160b6ecfd" stroke="#000000" stroke-width="0.8"/></defs><g><use x="56.8156" y="11.7" width="100%" height="100%" xlink:href="#ma160b6ecfd" stroke="#000000" stroke-width="0.8"></use></g></g><g id="text_8"><g transform="matrix(0.12 0 0 -0.12 22.8606 16.2)"><defs><path d="M2594 2000C2473.33 1856 2329 1740.33 2161 1653 1993 1565.67 1809 1522 1609 1522 1347 1522 1118.33 1586.33 923 1715 728.333 1844.33 578 2026.33 472 2261 366 2495.67 313 2754.67 313 3038 313 3342 370.667 3615.67 486 3859 601.333 4103 765.333 4289.67 978 4419 1190.67 4548.33 1438.67 4613 1722 4613 2172 4613 2526.67 4444.67 2786 4108 3045.33 3771.33 3175 3312.33 3175 2731L3175 2563C3175 1677 3000 1030.33 2650 623 2300 216.333 1772 7.66667 1066-3L953-3 953 484 1075 484C1552.33 492.667 1919 617.333 2175 858 2431 1098.67 2570.67 1479.33 2594 2000ZM1703 2000C1897 2000 2075.67 2059.33 2239 2178 2402.33 2296.67 2521.67 2443.67 2597 2619L2597 2850C2597 3229.33 2514.67 3537.67 2350 3775 2185.33 4012.33 1977 4131 1725 4131 1471 4131 1266.67 4033.67 1112 3839 958 3644.33 881 3387.67 881 3069 881 2758.33 955.333 2502.33 1104 2301 1253.33 2100.33 1453 2000 1703 2000Z" id="Roboto-Regular-39" transform="scale(0.015625 0.015625)"/><path d="M3138 3363C3138 3135.67 3078 2933.33 2958 2756 2838 2579.33 2676 2441 2472 2341 2709.33 2239 2897.33 2090 3036 1894 3174.67 1698 3244 1476 3244 1228 3244 834.667 3111 521 2845 287 2579.67 53.6667 2230.33-63 1797-63 1359.67-63 1009 54.3333 745 289 481.667 523.667 350 836.667 350 1228 350 1474 417 1696 551 1894 685.667 2092 871.667 2242 1109 2344 907 2444 747.667 2582.33 631 2759 514.333 2936.33 456 3137.67 456 3363 456 3746.33 579 4050.33 825 4275 1071 4500.33 1395 4613 1797 4613 2197 4613 2520.33 4500.33 2767 4275 3014.33 4050.33 3138 3746.33 3138 3363ZM2666 1241C2666 1495 2585 1702 2423 1862 2261.67 2022.67 2050.67 2103 1790 2103 1530 2103 1321.33 2023.67 1164 1865 1006.67 1707 928 1498.67 928 1240 928 982 1004.67 779 1158 631 1311.33 483 1524.33 409 1797 409 2067.67 409 2280 483.333 2434 632 2588.67 781.333 2666 984.333 2666 1241ZM1797 4138C1569.67 4138 1385.67 4067.67 1245 3927 1104.33 3786.33 1034 3595 1034 3353 1034 3121.67 1103.33 2934.67 1242 2792 1380.67 2649.33 1565.67 2578 1797 2578 2028.33 2578 2213 2649.33 2351 2792 2489.67 2934.67 2559 3121.67 2559 3353 2559 3584.33 2487 3773 2343 3919 2199.67 4065 2017.67 4138 1797 4138Z" id="Roboto-Regular-38" transform="scale(0.015625 0.015625)"/></defs><use width="100%" height="100%" xlink:href="#Roboto-Regular-32"></use><use width="100%" height="100%" xlink:href="#Roboto-Regular-39" transform="translate(56.1523 0)"></use><use width="100%" height="100%" xlink:href="#Roboto-Regular-38" transform="translate(112.305 0)"></use><use width="100%" height="100%" xlink:href="#Roboto-Regular-30" transform="translate(168.457 0)"></use></g></g></g><g id="ytick_2"><g id="line2d_15"><path d="M56.8156 87.8813 360.871 87.8813" stroke="#B0B0B0" stroke-width="0.8" stroke-dasharray="2.96 1.28" stroke-opacity="0.3" fill="none" clip-path="url(#pb0c75235db)"/></g><g id="line2d_16"><g><use x="56.8156" y="87.8813" width="100%" height="100%" xlink:href="#ma160b6ecfd" stroke="#000000" stroke-width="0.8"></use></g></g><g id="text_9"><g transform="matrix(0.12 0 0 -0.12 22.8606 92.3813)"><use width="100%" height="100%" xlink:href="#Roboto-Regular-32"></use><use width="100%" height="100%" xlink:href="#Roboto-Regular-39" transform="translate(56.1523 0)"></use><use width="100%" height="100%" xlink:href="#Roboto-Regular-39" transform="translate(112.305 0)"></use><use width="100%" height="100%" xlink:href="#Roboto-Regular-30" transform="translate(168.457 0)"></use></g></g></g><g id="ytick_3"><g id="line2d_17"><path d="M56.8156 164.063 360.871 164.063" stroke="#B0B0B0" stroke-width="0.8" stroke-dasharray="2.96 1.28" stroke-opacity="0.3" fill="none" clip-path="url(#pb0c75235db)"/></g><g id="line2d_18"><g><use x="56.8156" y="164.063" width="100%" height="100%" xlink:href="#ma160b6ecfd" stroke="#000000" stroke-width="0.8"></use></g></g><g id="text_10"><g transform="matrix(0.12 0 0 -0.12 22.8606 168.563)"><use width="100%" height="100%" xlink:href="#Roboto-Regular-33"></use><use width="100%" height="100%" xlink:href="#Roboto-Regular-30" transform="translate(56.1523 0)"></use><use width="100%" height="100%" xlink:href="#Roboto-Regular-30" transform="translate(112.305 0)"></use><use width="100%" height="100%" xlink:href="#Roboto-Regular-30" transform="translate(168.457 0)"></use></g></g></g><g id="ytick_4"><g id="line2d_19"><path d="M56.8156 240.244 360.871 240.244" stroke="#B0B0B0" stroke-width="0.8" stroke-dasharray="2.96 1.28" stroke-opacity="0.3" fill="none" clip-path="url(#pb0c75235db)"/></g><g id="line2d_20"><g><use x="56.8156" y="240.244" width="100%" height="100%" xlink:href="#ma160b6ecfd" stroke="#000000" stroke-width="0.8"></use></g></g><g id="text_11"><g transform="matrix(0.12 0 0 -0.12 22.8606 244.744)"><defs><path d="M2278 0 1697 0 1697 3853 531 3425 531 3950 2188 4572 2278 4572 2278 0Z" id="Roboto-Regular-31" transform="scale(0.015625 0.015625)"/></defs><use width="100%" height="100%" xlink:href="#Roboto-Regular-33"></use><use width="100%" height="100%" xlink:href="#Roboto-Regular-30" transform="translate(56.1523 0)"></use><use width="100%" height="100%" xlink:href="#Roboto-Regular-31" transform="translate(112.305 0)"></use><use width="100%" height="100%" xlink:href="#Roboto-Regular-30" transform="translate(168.457 0)"></use></g></g></g><g id="ytick_5"><g id="line2d_21"><path d="M56.8156 316.425 360.871 316.425" stroke="#B0B0B0" stroke-width="0.8" stroke-dasharray="2.96 1.28" stroke-opacity="0.3" fill="none" clip-path="url(#pb0c75235db)"/></g><g id="line2d_22"><g><use x="56.8156" y="316.425" width="100%" height="100%" xlink:href="#ma160b6ecfd" stroke="#000000" stroke-width="0.8"></use></g></g><g id="text_12"><g transform="matrix(0.12 0 0 -0.12 22.8606 320.925)"><use width="100%" height="100%" xlink:href="#Roboto-Regular-33"></use><use width="100%" height="100%" xlink:href="#Roboto-Regular-30" transform="translate(56.1523 0)"></use><use width="100%" height="100%" xlink:href="#Roboto-Regular-32" transform="translate(112.305 0)"></use><use width="100%" height="100%" xlink:href="#Roboto-Regular-30" transform="translate(168.457 0)"></use></g></g></g><g id="ytick_6"><g id="line2d_23"><path d="M56.8156 392.607 360.871 392.607" stroke="#B0B0B0" stroke-width="0.8" stroke-dasharray="2.96 1.28" stroke-opacity="0.3" fill="none" clip-path="url(#pb0c75235db)"/></g><g id="line2d_24"><g><use x="56.8156" y="392.607" width="100%" height="100%" xlink:href="#ma160b6ecfd" stroke="#000000" stroke-width="0.8"></use></g></g><g id="text_13"><g transform="matrix(0.12 0 0 -0.12 22.8606 397.107)"><use width="100%" height="100%" xlink:href="#Roboto-Regular-33"></use><use width="100%" height="100%" xlink:href="#Roboto-Regular-30" transform="translate(56.1523 0)"></use><use width="100%" height="100%" xlink:href="#Roboto-Regular-33" transform="translate(112.305 0)"></use><use width="100%" height="100%" xlink:href="#Roboto-Regular-30" transform="translate(168.457 0)"></use></g></g></g><g id="text_14"><g transform="matrix(7.34788e-18 -0.12 -0.12 -7.34788e-18 16.2994 261.058)"><defs><path d="M3350 4056 1156 4056 1156 0 553 0 553 4550 3350 4550 3350 4056Z" id="Roboto-Regular-413" transform="scale(0.015625 0.015625)"/><path d="M3209 3381 3209 0 2628 0 2628 2903 1478 2903 1409 1638C1371.67 1056.67 1274.33 641 1117 391 959.667 141 710.333 10.6667 369 0L138 0 138 509 303 522C490.333 542.667 624.667 651 706 847 787.333 1043 839.667 1405.33 863 1934L925 3381 3209 3381Z" id="Roboto-Regular-43b" transform="scale(0.015625 0.015625)"/><path d="M1544 847 2331 3381 2950 3381 1591-522C1380.33-1084.67 1046-1366 588-1366L478-1356 263-1316 263-847 419-859C615-859 767.667-819.333 877-740 986.333-661.333 1076.33-516.667 1147-306L1275 38 69 3381 700 3381 1544 847Z" id="Roboto-Regular-443" transform="scale(0.015625 0.015625)"/><path d="M1922 3188C2346.67 3188 2686.67 3045.67 2942 2761 3197.33 2476.33 3325 2102 3325 1638L3325 1584C3325 1265.33 3263.33 980.333 3140 729 3017.33 478.333 2841 283.667 2611 145 2381 6.33333 2116-63 1816-63 1361.33-63 995.333 88.6667 718 392 441.333 695.333 303 1102.33 303 1613L303 1894C303 2604 434.667 3168.33 698 3587 962 4006.33 1351.33 4261.67 1866 4353 2157.33 4405 2354 4468.33 2456 4543 2558 4618.33 2609 4721.67 2609 4853L3084 4853C3084 4593 3025 4390 2907 4244 2789.67 4098 2602 3994.67 2344 3934L1913 3838C1569 3756.67 1311 3619.67 1139 3427 967 3234.33 855 2977.33 803 2656 1109.67 3010.67 1482.67 3188 1922 3188ZM1809 2713C1525.67 2713 1300.67 2617.67 1134 2427 967.333 2236.33 884 1972 884 1634L884 1584C884 1222 968 935 1136 723 1304 511.667 1530.67 406 1816 406 2103.33 406 2330.33 512.333 2497 725 2663.67 937.667 2747 1248 2747 1656 2747 1974.67 2663 2230.33 2495 2423 2327.67 2616.33 2099 2713 1809 2713Z" id="Roboto-Regular-431" transform="scale(0.015625 0.015625)"/><path d="M2625 3381 3203 3381 3203 0 2625 0 2625 2466 1066 0 488 0 488 3381 1066 3381 1066 913 2625 3381Z" id="Roboto-Regular-438" transform="scale(0.015625 0.015625)"/><path d="M3200 0 2622 0 2622 1444 1069 1444 1069 0 488 0 488 3381 1069 3381 1069 1916 2622 1916 2622 3381 3200 3381 3200 0Z" id="Roboto-Regular-43d" transform="scale(0.015625 0.015625)"/><path d="M2525 0C2491.67 66.6667 2464.67 185.333 2444 356 2175.33 76.6667 1854.33-63 1481-63 1147.67-63 874.333 31.3333 661 220 447.667 408.667 341 648 341 938 341 1290 474.667 1563.33 742 1758 1010 1952.67 1386.67 2050 1872 2050L2434 2050 2434 2316C2434 2518 2373.67 2678.67 2253 2798 2132.33 2918 1954.33 2978 1719 2978 1512.33 2978 1339.33 2926 1200 2822 1060.67 2718 991 2592 991 2444L409 2444C409 2612.67 469 2775.67 589 2933 709 3090.33 871.333 3214.67 1076 3306 1281.33 3398 1507 3444 1753 3444 2143 3444 2448.33 3346.33 2669 3151 2889.67 2956.33 3004.33 2688.33 3013 2347L3013 791C3013 480.333 3052.33 233.333 3131 50L3131 0 2525 0ZM1566 441C1747.33 441 1919 487.667 2081 581 2243.67 675 2361.33 797 2434 947L2434 1641 1981 1641C1273 1641 919 1433.67 919 1019 919 837.667 979.333 696 1100 594 1220.67 492 1376 441 1566 441Z" id="Roboto-Regular-430" transform="scale(0.015625 0.015625)"/></defs><use width="100%" height="100%" xlink:href="#Roboto-Regular-413"></use><use width="100%" height="100%" xlink:href="#Roboto-Regular-43b" transform="translate(55.6152 0)"></use><use width="100%" height="100%" xlink:href="#Roboto-Regular-443" transform="translate(113.428 0)"></use><use width="100%" height="100%" xlink:href="#Roboto-Regular-431" transform="translate(160.742 0)"></use><use width="100%" height="100%" xlink:href="#Roboto-Regular-438" transform="translate(216.016 0)"></use><use width="100%" height="100%" xlink:href="#Roboto-Regular-43d" transform="translate(273.73 0)"></use><use width="100%" height="100%" xlink:href="#Roboto-Regular-430" transform="translate(331.396 0)"></use><use width="100%" height="100%" xlink:href="#Roboto-Regular-2c" transform="translate(385.791 0)"></use><use width="100%" height="100%" xlink:href="#Roboto-Regular-20" transform="translate(405.42 0)"></use><use width="100%" height="100%" xlink:href="#Roboto-Regular-43c" transform="translate(430.176 0)"></use></g></g></g><g id="line2d_25"><path d="M190.872-1 190.799-0.48901 188.781 1.03462 188.217 1.79643 188.426 2.55824 188.869 3.32006 188.386 4.08187 186.086 4.84368 173.972 7.12912 172.078 7.89093 172.126 8.65275 173.561 9.41456 175.852 10.1764 179.189 10.9382 184.283 11.7 199.114 13.2236 204.43 13.9854 204.307 14.7473 198.896 15.5091 191.747 16.2709 186.55 17.0327 184.515 17.7945 184.422 19.3181 183.742 20.0799 182.842 20.8418 182.369 21.6036 182.433 22.3654 183.004 23.889 183.507 24.6508 184.814 25.4126 187.571 26.1744 192.131 26.9363 204.13 28.4599 207.503 29.2217 206.123 29.9835 200.209 30.7453 184.808 32.269 179.408 33.0308 176.341 33.7926 175.332 34.5544 175.886 35.3162 177.54 36.078 179.998 36.8398 183.114 37.6016 186.867 38.3635 191.331 39.1253 206.444 41.4107 209.296 42.1725 209.696 42.9343 207.648 43.6962 196.375 45.9816 193.866 46.7434 192.146 47.5052 191.028 48.267 190.551 49.0288 190.83 49.7907 191.762 50.5525 194.355 52.0761 196.044 52.8379 198.694 53.5997 202.896 54.3615 208.763 55.1233 221.745 56.647 225.227 57.4088 224.983 58.1706 221.71 58.9324 202.8 61.9797 199.329 62.7415 196.743 63.5033 192.696 65.0269 190.252 65.7887 170.504 71.1214 168.479 71.8832 167.364 72.6451 166.199 74.1687 165.808 74.9305 166.453 75.6923 168.942 76.4541 177.45 77.9777 180.504 78.7396 181.558 79.5014 181.024 80.2632 178.642 81.7868 178.024 82.5486 177.921 83.3104 177.973 84.0723 177.799 84.8341 176.326 87.1195 175.933 88.6431 175.921 89.4049 176.136 90.1668 176.677 90.9286 177.616 91.6904 178.778 92.4522 179.563 93.214 179.351 93.9758 178.161 94.7376 176.624 95.4994 175.348 96.2613 174.607 97.0231 174.499 97.7849 175.077 98.5467 176.253 99.3085 180.89 101.594 183.688 102.356 188.821 103.118 197.002 103.879 229.229 106.165 236.169 106.927 240.404 107.688 243.152 108.45 245.148 109.212 246.199 109.974 245.63 110.736 242.733 111.498 237.037 112.259 228.655 113.021 198.545 115.307 190.805 116.068 185.133 116.83 181.265 117.592 178.565 118.354 176.459 119.116 174.728 119.877 173.429 120.639 172.642 121.401 172.342 122.163 172.421 122.925 173.552 125.21 173.602 125.972 173.201 127.496 173.176 128.257 173.353 129.019 173.704 129.781 174.673 131.305 174.826 132.066 174.393 132.828 173.368 133.59 170.962 135.114 170.572 135.876 171.149 136.637 172.624 137.399 178.4 139.685 179.382 140.446 179.685 141.208 179.742 141.97 180.187 142.732 181.355 143.494 182.972 144.255 184.321 145.017 184.712 145.779 183.926 146.541 182.424 147.303 181.169 148.065 181.044 148.826 182.272 149.588 185.979 151.112 186.563 151.874 185.738 152.635 181.758 154.159 180.606 154.921 181.094 155.683 183.015 156.445 185.389 157.206 187.103 157.968 187.593 158.73 186.987 159.492 185.634 160.254 183.699 161.015 176.702 163.301 175.46 164.063 175.131 164.824 175.448 165.586 175.975 166.348 176.304 167.11 176.168 167.872 174.495 170.157 174.741 170.919 175.874 172.443 175.93 173.204 175.512 173.966 174.91 174.728 174.498 175.49 174.498 176.252 174.862 177.013 175.81 178.537 176.289 180.061 176.511 181.584 176.503 182.346 175.921 185.393 175.59 186.155 174.824 186.917 173.762 187.679 172.893 188.441 172.665 189.202 173.115 189.964 173.86 190.726 174.39 191.488 174.407 192.25 173.617 193.773 173.904 194.535 175.247 195.297 177.28 196.059 178.808 196.821 178.573 197.582 176.339 198.344 173.182 199.106 170.696 199.868 170.017 200.63 171.347 201.391 176.422 202.915 177.707 203.677 177.613 204.439 176.861 205.201 176.372 205.962 176.671 206.724 179.597 209.01 179.448 209.771 178.575 210.533 177.49 211.295 176.826 212.057 177.073 212.819 178.338 213.58 180.165 214.342 181.63 215.104 181.889 215.866 180.796 216.628 175.208 218.913 174.04 219.675 173.509 220.437 173.611 221.199 174.18 221.96 174.925 222.722 175.493 223.484 175.623 224.246 175.326 225.008 174.902 225.769 174.712 226.531 174.885 227.293 175.204 228.055 175.315 228.817 175.057 229.579 174.609 230.34 174.324 231.102 174.438 231.864 175.702 234.149 175.583 235.673 175.431 236.435 174.946 237.197 173.664 237.958 167.155 240.244 166.281 241.006 166.323 241.768 167.106 243.291 167.34 245.577 167.658 246.338 168.786 247.862 169.436 248.624 169.919 249.386 170.278 250.909 171.262 251.671 173.878 252.433 186.041 254.718 186.511 255.48 184.696 256.242 182.313 257.004 180.688 257.766 179.077 259.289 177.81 260.051 176.248 260.813 174.983 261.575 174.429 262.337 174.575 263.098 175.23 263.86 176.371 264.622 178.064 265.384 182.17 266.907 183.767 267.669 184.855 268.431 185.722 269.193 187.031 269.955 189.654 270.716 194.239 271.478 200.772 272.24 215.329 273.764 219.695 274.526 219.904 275.287 215.605 276.049 207.888 276.811 189.966 278.335 182.966 279.096 178.301 279.858 175.961 280.62 175.479 281.382 176.086 282.144 176.935 282.905 177.447 283.667 177.552 284.429 177.237 288.238 176.003 291.285 175.991 292.047 176.64 294.333 176.181 295.094 175.062 295.856 172 297.38 170.959 298.142 170.584 298.904 170.807 299.665 171.447 300.427 172.381 301.189 173.564 301.951 176.575 303.474 179.663 304.998 180.582 305.76 181.008 306.522 181.304 307.284 181.958 308.045 183.314 308.807 185.444 309.569 190.75 311.093 192.474 311.854 192.338 312.616 190.017 313.378 182.307 314.902 179.266 315.663 177.452 316.425 176.763 317.187 176.972 317.949 179.342 320.234 180.105 321.758 180.883 322.52 184.715 324.805 185.128 325.567 184.813 326.329 182.796 328.614 182.373 329.376 182.358 330.138 183.285 330.9 185.743 331.662 190.118 332.423 196.414 333.185 219.897 335.471 225.817 336.232 229.358 336.994 230.279 337.756 228.957 338.518 226.106 339.28 222.215 340.041 217.284 340.803 204.374 342.327 191.555 343.851 186.616 344.612 182.7 345.374 179.642 346.136 177.368 346.898 175.822 347.66 173.963 349.183 171.874 350.707 170.865 351.469 170.417 352.23 170.91 352.992 172.434 353.754 176.507 355.278 177.333 356.04 176.888 356.801 173.476 359.087 170.474 361.372 169.811 362.134 169.47 362.896 169.071 364.419 168.591 365.181 167.935 365.943 167.478 366.705 167.669 367.467 168.676 368.229 173.402 370.514 174.059 371.276 173.731 372.038 171.561 373.561 171.109 374.323 171.753 375.085 173.624 375.847 176.528 376.608 183.295 378.132 185.555 378.894 185.676 379.656 182.802 380.418 177.142 381.179 170.307 381.941 164.559 382.703 161.646 383.465 162.072 384.227 164.988 384.988 168.708 385.75 171.731 386.512 173.586 387.274 178.454 390.321 179.182 391.083 179.291 391.845 178.022 394.892 177.762 395.654 177.324 396.416 176.237 397.939 176.076 398.701 176.451 399.463 178.915 401.748 179.117 402.51 178.885 403.272 178.047 404.796 177.784 405.557 177.711 406.319 177.992 408.605 177.479 409.366 176.681 410.128 176.148 410.89 176.25 411.652 176.855 412.414 178.509 413.937 180.724 415.461 184.145 417.746 185.135 418.508 185.78 419.27 185.91 420.032 185.76 420.794 186.136 421.555 188.193 422.317 192.913 423.079 200.546 423.841 229.682 426.126 236.313 426.888 240.348 427.65 242.597 428.412 244.252 429.174 246.221 429.935 248.531 430.697 250.14 431.459 249.619 432.221 246.464 432.983 227.216 436.03 214.392 438.315 208.743 439.077 189.847 441.363 185.871 442.124 183.649 442.886 182.742 443.648 182.571 444.41 182.824 445.172 184.505 447.457 184.401 448.219 183.816 448.981 182.886 449.743 180.736 451.266 180.084 452.028 179.988 452.79 180.361 453.552 181.506 455.075 181.506 455.837 182.418 457.361 184.23 459.646 184.312 461.17 183.468 463.455 183.54 464.979 183.54 465.741 182.959 466.502 180.3 468.026 179.452 468.788 179.547 470.312 180.88 471.835 180.782 472.597 179.939 473.359 178.882 474.121 178.882 474.882 178.375 475.644 178.975 476.406 180.692 477.168 185.202 478.691 188.671 480.215 192.91 480.977 194.96 481.739 195.296 482.501 192.568 483.262 181.432 484.786 177.766 485.548 176.752 486.31 177.375 487.071 176.111 487.833 173.289 488.595 162.13 490.88 159.244 491.642 157.124 492.404 156.992 493.166 159.592 493.928 162.975 494.606 162.975 494.606" stroke="#000000" stroke-width="1.5" stroke-linecap="square" fill="none" clip-path="url(#pb0c75235db)"/></g><g id="patch_3"><path d="M56.8156 452.531 56.8156 9.06413" stroke="#000000" stroke-width="0.8" stroke-linecap="square" stroke-linejoin="miter" fill="none"/></g><g id="patch_4"><path d="M360.871 452.531 360.871 9.06413" stroke="#000000" stroke-width="0.8" stroke-linecap="square" stroke-linejoin="miter" fill="none"/></g><g id="patch_5"><path d="M56.8156 452.531 360.871 452.531" stroke="#000000" stroke-width="0.8" stroke-linecap="square" stroke-linejoin="miter" fill="none"/></g><g id="patch_6"><path d="M56.8156 9.06413 360.871 9.06413" stroke="#000000" stroke-width="0.8" stroke-linecap="square" stroke-linejoin="miter" fill="none"/></g><g id="legend_1"><g id="patch_7"><path d="M246.07 53.6385 352.471 53.6385C354.071 53.6385 354.871 52.8385 354.871 51.2385L354.871 17.4641C354.871 15.8641 354.071 15.0641 352.471 15.0641L246.07 15.0641C244.47 15.0641 243.67 15.8641 243.67 17.4641L243.67 51.2385C243.67 52.8385 244.47 53.6385 246.07 53.6385Z" stroke="#CCCCCC" stroke-linejoin="miter" fill="#FFFFFF" opacity="0.8"/></g><g id="line2d_26"><path d="M248.47 24.6641 260.47 24.6641 272.47 24.6641" stroke="#000000" stroke-width="1.5" stroke-linecap="square" fill="none"/></g><g id="text_15"><g transform="matrix(0.12 0 0 -0.12 282.07 28.8641)"><defs><path d="M3397 4550 3997 4550 3997 0 3397 0 3397 3506 1156 0 553 0 553 4550 1156 4550 1156 1044 3397 4550Z" id="Roboto-Regular-418" transform="scale(0.015625 0.015625)"/><path d="M3875 1444C3819 962.667 3641.33 591 3342 329 3043.33 67.6667 2646-63 2150-63 1612.67-63 1182 129.667 858 515 534 901 372 1417 372 2063L372 2500C372 2922.67 447.333 3294.33 598 3615 749.333 3936.33 963.333 4183 1240 4355 1517.33 4527 1838.33 4613 2203 4613 2686.33 4613 3073.67 4478 3365 4208 3657 3938 3827 3564.67 3875 3088L3272 3088C3220 3450 3107 3712.33 2933 3875 2759 4037.67 2515.67 4119 2203 4119 1819.67 4119 1519 3977.33 1301 3694 1083.67 3410.67 975 3007.33 975 2484L975 2044C975 1550 1078 1157 1284 865 1490.67 573.667 1779.33 428 2150 428 2483.33 428 2739 503.333 2917 654 3095 805.333 3213.33 1068.67 3272 1444L3875 1444Z" id="Roboto-Regular-421" transform="scale(0.015625 0.015625)"/></defs><use width="100%" height="100%" xlink:href="#Roboto-Regular-413"></use><use width="100%" height="100%" xlink:href="#Roboto-Regular-418" transform="translate(55.6152 0)"></use><use width="100%" height="100%" xlink:href="#Roboto-Regular-421" transform="translate(126.904 0)"></use><use width="100%" height="100%" xlink:href="#Roboto-Regular-20" transform="translate(191.992 0)"></use><use width="100%" height="100%" xlink:href="#Roboto-Regular-56" transform="translate(216.748 0)"></use><use width="100%" height="100%" xlink:href="#Roboto-Regular-70" transform="translate(280.371 0)"></use></g></g><g id="PathCollection_2"><g><use x="260.47" y="43.251" width="100%" height="100%" xlink:href="#m980eb3ef47" stroke="#FF0000" stroke-opacity="0.7" fill="#FF0000" fill-opacity="0.7"></use></g></g><g id="text_16"><g transform="matrix(0.12 0 0 -0.12 282.07 46.401)"><defs><path d="M4028 2128C4028 1682 3953 1293 3803 961 3653 629 3440.33 375.333 3165 200 2890.33 24.6667 2569.67-63 2203-63 1845-63 1527.33 25 1250 201 972.667 377.667 757.333 629 604 955 451.333 1281 373 1658.67 369 2088L369 2416C369 2853.33 445 3239.67 597 3575 749 3910.33 964 4167 1242 4345 1520 4523.67 1838.33 4613 2197 4613 2561.67 4613 2883 4524.67 3161 4348 3439 4172 3653 3916.67 3803 3582 3953 3248 4028 2859.33 4028 2416L4028 2128ZM3431 2422C3431 2961.33 3322.67 3375.33 3106 3664 2889.33 3952.67 2586.33 4097 2197 4097 1817.67 4097 1519 3952.67 1301 3664 1083.67 3375.33 972 2975 966 2463L966 2128C966 1605.33 1075.67 1194.33 1295 895 1515 596.333 1817.67 447 2203 447 2590.33 447 2890.33 588 3103 870 3315.67 1152.67 3425 1557.33 3431 2084L3431 2422Z" id="Roboto-Regular-41e" transform="scale(0.015625 0.015625)"/><path d="M3294 1653C3294 1138.33 3176.33 723.667 2941 409 2705.67 94.3333 2386.67-63 1984-63 1574-63 1251.33 67.3333 1016 328L1016-1300 438-1300 438 3381 966 3381 994 3006C1229.33 3298 1556.33 3444 1975 3444 2381 3444 2702.33 3290.67 2939 2984 3175.67 2678 3294 2252 3294 1706L3294 1653ZM2716 1719C2716 2100.33 2634.67 2401.33 2472 2622 2309.33 2842.67 2086.33 2953 1803 2953 1453 2953 1190.67 2798 1016 2488L1016 872C1188.67 563.333 1453 409 1809 409 2086.33 409 2306.67 519 2470 739 2634 959 2716 1285.67 2716 1719Z" id="Roboto-Regular-440" transform="scale(0.015625 0.015625)"/><path d="M2297 2456C2297 2614.67 2236.33 2740.33 2115 2833 1994.33 2925.67 1829 2972 1619 2972 1415 2972 1244.67 2918.67 1108 2812 971.333 2706 903 2581.33 903 2438L328 2438C328 2731.33 451 2971.67 697 3159 943 3347 1250.33 3441 1619 3441 2015 3441 2323.33 3356 2544 3186 2764.67 3016 2875 2773.67 2875 2459 2875 2307 2829 2167.33 2737 2040 2645.67 1913.33 2515.67 1812.67 2347 1738 2741 1604.67 2938 1342 2938 950 2938 639.333 2818 393.333 2578 212 2338.67 31.3333 2019-59 1619-59 1229-59 907.333 36.3333 654 227 401.333 417.667 275 675.333 275 1000L850 1000C850 835.333 923.333 694 1070 576 1217.33 458.667 1400.33 400 1619 400 1839.67 400 2017.67 451 2153 553 2288.33 655 2356 787.333 2356 950 2356 1139.33 2299.33 1275 2186 1357 2072.67 1439.67 1896 1481 1656 1481L1078 1481 1078 1969 1706 1969C2100 1979 2297 2141.33 2297 2456Z" id="Roboto-Regular-437" transform="scale(0.015625 0.015625)"/><path d="M488 3381 1069 3381 1069 472 2625 472 2625 3381 3203 3381 3203 472 3606 472 3550-1003 3031-1003 3031 0 488 0 488 3381Z" id="Roboto-Regular-446" transform="scale(0.015625 0.015625)"/><path d="M1069 2216 1947 2216C2330.33 2211.33 2633.33 2111 2856 1915 3079.33 1719.67 3191 1454.33 3191 1119 3191 781.667 3076.33 510.667 2847 306 2617.67 102 2309.33 0 1922 0L491 0 491 3381 1069 3381 1069 2216ZM4397 0 3816 0 3816 3381 4397 3381 4397 0ZM1069 1744 1069 472 1928 472C2144.67 472 2312.33 527.667 2431 639 2549.67 750.333 2609 903 2609 1097 2609 1284.33 2551.33 1438 2436 1558 2320.67 1678 2158.67 1740 1950 1744L1069 1744Z" id="Roboto-Regular-44b" transform="scale(0.015625 0.015625)"/></defs><use width="100%" height="100%" xlink:href="#Roboto-Regular-41e"></use><use width="100%" height="100%" xlink:href="#Roboto-Regular-431" transform="translate(68.75 0)"></use><use width="100%" height="100%" xlink:href="#Roboto-Regular-440" transform="translate(124.023 0)"></use><use width="100%" height="100%" xlink:href="#Roboto-Regular-430" transform="translate(180.127 0)"></use><use width="100%" height="100%" xlink:href="#Roboto-Regular-437" transform="translate(234.521 0)"></use><use width="100%" height="100%" xlink:href="#Roboto-Regular-446" transform="translate(285.303 0)"></use><use width="100%" height="100%" xlink:href="#Roboto-Regular-44b" transform="translate(344.531 0)"></use><use width="100%" height="100%" xlink:href="#Roboto-Regular-20" transform="translate(422.168 0)"></use><use width="100%" height="100%" xlink:href="#Roboto-Regular-56" transform="translate(446.924 0)"></use><use width="100%" height="100%" xlink:href="#Roboto-Regular-70" transform="translate(510.547 0)"></use></g></g></g></g><g id="axes_2"><g id="patch_8"><path d="M397.32 452.531 701.376 452.531 701.376 9.06413 397.32 9.06413Z" fill="#FFFFFF"/></g><g id="PathCollection_3"><defs><path d="M0 2.73861C0.726289 2.73861 1.42293 2.45005 1.93649 1.93649 2.45005 1.42293 2.73861 0.726289 2.73861 0 2.73861-0.726289 2.45005-1.42293 1.93649-1.93649 1.42293-2.45005 0.726289-2.73861 0-2.73861-0.726289-2.73861-1.42293-2.45005-1.93649-1.93649-2.45005-1.42293-2.73861-0.726289-2.73861 0-2.73861 0.726289-2.45005 1.42293-1.93649 1.93649-1.42293 2.45005-0.726289 2.73861 0 2.73861Z" id="m9645fff414" stroke="#0000FF" stroke-opacity="0.7"/></defs><g clip-path="url(#p33966db76a)"><use x="429.593" y="406.472" width="100%" height="100%" xlink:href="#m9645fff414" stroke="#0000FF" stroke-opacity="0.7" fill="#0000FF" fill-opacity="0.7"></use><use x="431.799" y="152.788" width="100%" height="100%" xlink:href="#m9645fff414" stroke="#0000FF" stroke-opacity="0.7" fill="#0000FF" fill-opacity="0.7"></use><use x="429.694" y="235.368" width="100%" height="100%" xlink:href="#m9645fff414" stroke="#0000FF" stroke-opacity="0.7" fill="#0000FF" fill-opacity="0.7"></use><use x="429.058" y="278.792" width="100%" height="100%" xlink:href="#m9645fff414" stroke="#0000FF" stroke-opacity="0.7" fill="#0000FF" fill-opacity="0.7"></use><use x="427.095" y="338.289" width="100%" height="100%" xlink:href="#m9645fff414" stroke="#0000FF" stroke-opacity="0.7" fill="#0000FF" fill-opacity="0.7"></use><use x="426.893" y="370.057" width="100%" height="100%" xlink:href="#m9645fff414" stroke="#0000FF" stroke-opacity="0.7" fill="#0000FF" fill-opacity="0.7"></use><use x="427.179" y="431.535" width="100%" height="100%" xlink:href="#m9645fff414" stroke="#0000FF" stroke-opacity="0.7" fill="#0000FF" fill-opacity="0.7"></use><use x="431.097" y="29.2217" width="100%" height="100%" xlink:href="#m9645fff414" stroke="#0000FF" stroke-opacity="0.7" fill="#0000FF" fill-opacity="0.7"></use><use x="429.514" y="64.3413" width="100%" height="100%" xlink:href="#m9645fff414" stroke="#0000FF" stroke-opacity="0.7" fill="#0000FF" fill-opacity="0.7"></use><use x="434.948" y="30.2882" width="100%" height="100%" xlink:href="#m9645fff414" stroke="#0000FF" stroke-opacity="0.7" fill="#0000FF" fill-opacity="0.7"></use><use x="428.434" y="368.381" width="100%" height="100%" xlink:href="#m9645fff414" stroke="#0000FF" stroke-opacity="0.7" fill="#0000FF" fill-opacity="0.7"></use><use x="425.332" y="111.421" width="100%" height="100%" xlink:href="#m9645fff414" stroke="#0000FF" stroke-opacity="0.7" fill="#0000FF" fill-opacity="0.7"></use><use x="431.799" y="152.788" width="100%" height="100%" xlink:href="#m9645fff414" stroke="#0000FF" stroke-opacity="0.7" fill="#0000FF" fill-opacity="0.7"></use><use x="429.829" y="236.359" width="100%" height="100%" xlink:href="#m9645fff414" stroke="#0000FF" stroke-opacity="0.7" fill="#0000FF" fill-opacity="0.7"></use><use x="431.336" y="65.5602" width="100%" height="100%" xlink:href="#m9645fff414" stroke="#0000FF" stroke-opacity="0.7" fill="#0000FF" fill-opacity="0.7"></use><use x="436.886" y="280.163" width="100%" height="100%" xlink:href="#m9645fff414" stroke="#0000FF" stroke-opacity="0.7" fill="#0000FF" fill-opacity="0.7"></use><use x="429.593" y="406.472" width="100%" height="100%" xlink:href="#m9645fff414" stroke="#0000FF" stroke-opacity="0.7" fill="#0000FF" fill-opacity="0.7"></use><use x="427.179" y="431.535" width="100%" height="100%" xlink:href="#m9645fff414" stroke="#0000FF" stroke-opacity="0.7" fill="#0000FF" fill-opacity="0.7"></use><use x="431.097" y="29.2217" width="100%" height="100%" xlink:href="#m9645fff414" stroke="#0000FF" stroke-opacity="0.7" fill="#0000FF" fill-opacity="0.7"></use><use x="426.868" y="110.355" width="100%" height="100%" xlink:href="#m9645fff414" stroke="#0000FF" stroke-opacity="0.7" fill="#0000FF" fill-opacity="0.7"></use><use x="426.893" y="370.057" width="100%" height="100%" xlink:href="#m9645fff414" stroke="#0000FF" stroke-opacity="0.7" fill="#0000FF" fill-opacity="0.7"></use><use x="433.274" y="150.883" width="100%" height="100%" xlink:href="#m9645fff414" stroke="#0000FF" stroke-opacity="0.7" fill="#0000FF" fill-opacity="0.7"></use><use x="428.947" y="339.508" width="100%" height="100%" xlink:href="#m9645fff414" stroke="#0000FF" stroke-opacity="0.7" fill="#0000FF" fill-opacity="0.7"></use><use x="431.529" y="407.233" width="100%" height="100%" xlink:href="#m9645fff414" stroke="#0000FF" stroke-opacity="0.7" fill="#0000FF" fill-opacity="0.7"></use><use x="429.2" y="137.399" width="100%" height="100%" xlink:href="#m9645fff414" stroke="#0000FF" stroke-opacity="0.7" fill="#0000FF" fill-opacity="0.7"></use><use x="427.031" y="432.373" width="100%" height="100%" xlink:href="#m9645fff414" stroke="#0000FF" stroke-opacity="0.7" fill="#0000FF" fill-opacity="0.7"></use><use x="426.868" y="110.355" width="100%" height="100%" xlink:href="#m9645fff414" stroke="#0000FF" stroke-opacity="0.7" fill="#0000FF" fill-opacity="0.7"></use><use x="426.501" y="136.409" width="100%" height="100%" xlink:href="#m9645fff414" stroke="#0000FF" stroke-opacity="0.7" fill="#0000FF" fill-opacity="0.7"></use><use x="429.694" y="235.368" width="100%" height="100%" xlink:href="#m9645fff414" stroke="#0000FF" stroke-opacity="0.7" fill="#0000FF" fill-opacity="0.7"></use><use x="426.501" y="136.409" width="100%" height="100%" xlink:href="#m9645fff414" stroke="#0000FF" stroke-opacity="0.7" fill="#0000FF" fill-opacity="0.7"></use><use x="427.095" y="338.289" width="100%" height="100%" xlink:href="#m9645fff414" stroke="#0000FF" stroke-opacity="0.7" fill="#0000FF" fill-opacity="0.7"></use><use x="429.514" y="64.3413" width="100%" height="100%" xlink:href="#m9645fff414" stroke="#0000FF" stroke-opacity="0.7" fill="#0000FF" fill-opacity="0.7"></use><use x="429.058" y="278.792" width="100%" height="100%" xlink:href="#m9645fff414" stroke="#0000FF" stroke-opacity="0.7" fill="#0000FF" fill-opacity="0.7"></use></g></g><g id="matplotlib.axis_3"><g id="xtick_7"><g id="line2d_27"><path d="M404.979 452.531 404.979 9.06413" stroke="#B0B0B0" stroke-width="0.8" stroke-dasharray="2.96 1.28" stroke-opacity="0.3" fill="none" clip-path="url(#p33966db76a)"/></g><g id="line2d_28"><g><use x="404.979" y="452.531" width="100%" height="100%" xlink:href="#m1e03ccbb23" stroke="#000000" stroke-width="0.8"></use></g></g><g id="text_17"><g transform="matrix(0.12 0 0 -0.12 401.609 468.531)"><use width="100%" height="100%" xlink:href="#Roboto-Regular-30"></use></g></g></g><g id="xtick_8"><g id="line2d_29"><path d="M469.788 452.531 469.788 9.06413" stroke="#B0B0B0" stroke-width="0.8" stroke-dasharray="2.96 1.28" stroke-opacity="0.3" fill="none" clip-path="url(#p33966db76a)"/></g><g id="line2d_30"><g><use x="469.788" y="452.531" width="100%" height="100%" xlink:href="#m1e03ccbb23" stroke="#000000" stroke-width="0.8"></use></g></g><g id="text_18"><g transform="matrix(0.12 0 0 -0.12 463.049 468.531)"><use width="100%" height="100%" xlink:href="#Roboto-Regular-32"></use><use width="100%" height="100%" xlink:href="#Roboto-Regular-30" transform="translate(56.1523 0)"></use></g></g></g><g id="xtick_9"><g id="line2d_31"><path d="M534.598 452.531 534.598 9.06413" stroke="#B0B0B0" stroke-width="0.8" stroke-dasharray="2.96 1.28" stroke-opacity="0.3" fill="none" clip-path="url(#p33966db76a)"/></g><g id="line2d_32"><g><use x="534.598" y="452.531" width="100%" height="100%" xlink:href="#m1e03ccbb23" stroke="#000000" stroke-width="0.8"></use></g></g><g id="text_19"><g transform="matrix(0.12 0 0 -0.12 527.859 468.531)"><use width="100%" height="100%" xlink:href="#Roboto-Regular-34"></use><use width="100%" height="100%" xlink:href="#Roboto-Regular-30" transform="translate(56.1523 0)"></use></g></g></g><g id="xtick_10"><g id="line2d_33"><path d="M599.407 452.531 599.407 9.06413" stroke="#B0B0B0" stroke-width="0.8" stroke-dasharray="2.96 1.28" stroke-opacity="0.3" fill="none" clip-path="url(#p33966db76a)"/></g><g id="line2d_34"><g><use x="599.407" y="452.531" width="100%" height="100%" xlink:href="#m1e03ccbb23" stroke="#000000" stroke-width="0.8"></use></g></g><g id="text_20"><g transform="matrix(0.12 0 0 -0.12 592.668 468.531)"><use width="100%" height="100%" xlink:href="#Roboto-Regular-36"></use><use width="100%" height="100%" xlink:href="#Roboto-Regular-30" transform="translate(56.1523 0)"></use></g></g></g><g id="xtick_11"><g id="line2d_35"><path d="M664.216 452.531 664.216 9.06413" stroke="#B0B0B0" stroke-width="0.8" stroke-dasharray="2.96 1.28" stroke-opacity="0.3" fill="none" clip-path="url(#p33966db76a)"/></g><g id="line2d_36"><g><use x="664.216" y="452.531" width="100%" height="100%" xlink:href="#m1e03ccbb23" stroke="#000000" stroke-width="0.8"></use></g></g><g id="text_21"><g transform="matrix(0.12 0 0 -0.12 657.478 468.531)"><use width="100%" height="100%" xlink:href="#Roboto-Regular-38"></use><use width="100%" height="100%" xlink:href="#Roboto-Regular-30" transform="translate(56.1523 0)"></use></g></g></g><g id="text_22"><g transform="matrix(0.12 0 0 -0.12 521.627 483.968)"><defs><path d="M3888 597C3733.33 376.333 3518 211 3242 101 2966-8.33333 2644.67-63 2278-63 1907.33-63 1578 24 1290 198 1002.67 372 780.333 619.333 623 940 466.333 1261.33 385.667 1633.33 381 2056L381 2453C381 3138.33 541 3669.67 861 4047 1181 4424.33 1630.33 4613 2209 4613 2684.33 4613 3066.67 4491.33 3356 4248 3646 4005.33 3823.33 3661.33 3888 3216L3288 3216C3175.33 3818 2817 4119 2213 4119 1810.33 4119 1505.33 3977.67 1298 3695 1091.33 3413 986.667 3004.33 984 2469L984 2097C984 1586.33 1100.67 1180.33 1334 879 1567.33 578.333 1883 428 2281 428 2506.33 428 2703.33 453 2872 503 3040.67 553 3180.33 637.333 3291 756L3291 1778 2238 1778 2238 2266 3888 2266 3888 597Z" id="Roboto-Regular-47" transform="scale(0.015625 0.015625)"/><path d="M1684 2116 1128 1538 1128 0 528 0 528 4550 1128 4550 1128 2300 3150 4550 3875 4550 2084 2541 4016 0 3297 0 1684 2116Z" id="Roboto-Regular-4b" transform="scale(0.015625 0.015625)"/><path d="M1491 1441 1069 1441 1069 0 488 0 488 3381 1069 3381 1069 1950 1447 1950 2584 3381 3284 3381 1947 1756 3397 0 2663 0 1491 1441Z" id="Roboto-Regular-43a" transform="scale(0.015625 0.015625)"/><path d="M1128 1781 1128 0 528 0 528 4550 2206 4550C2704 4550 3094 4423 3376 4169 3658.67 3915 3800 3578.33 3800 3159 3800 2717.67 3662 2377.67 3386 2139 3110 1900.33 2714.67 1781 2200 1781L1128 1781ZM1128 2272 2206 2272C2527.33 2272 2773.33 2347.33 2944 2498 3114.67 2649.33 3200 2867.67 3200 3153 3200 3423.67 3114.67 3640.33 2944 3803 2773.33 3965.67 2539 4050 2241 4056L1128 4056 1128 2272Z" id="Roboto-Regular-420" transform="scale(0.015625 0.015625)"/><path d="M2991 0 2409 0 2409 1225C2155 1158.33 1894.67 1125 1628 1125 1205.33 1125 883 1233.33 661 1450 439 1666.67 326 1975 322 2375L322 3384 900 3384 900 2356C910.667 1852 1153.33 1600 1628 1600 1894.67 1600 2155 1633.33 2409 1700L2409 3381 2991 3381 2991 0Z" id="Roboto-Regular-447" transform="scale(0.015625 0.015625)"/></defs><use width="100%" height="100%" xlink:href="#Roboto-Regular-47"></use><use width="100%" height="100%" xlink:href="#Roboto-Regular-4b" transform="translate(68.1152 0)"></use><use width="100%" height="100%" xlink:href="#Roboto-Regular-2c" transform="translate(130.811 0)"></use><use width="100%" height="100%" xlink:href="#Roboto-Regular-20" transform="translate(150.439 0)"></use><use width="100%" height="100%" xlink:href="#Roboto-Regular-43c" transform="translate(175.195 0)"></use><use width="100%" height="100%" xlink:href="#Roboto-Regular-43a" transform="translate(249.365 0)"></use><use width="100%" height="100%" xlink:href="#Roboto-Regular-420" transform="translate(303.369 0)"></use><use width="100%" height="100%" xlink:href="#Roboto-Regular-2f" transform="translate(366.455 0)"></use><use width="100%" height="100%" xlink:href="#Roboto-Regular-447" transform="translate(407.666 0)"></use></g></g></g><g id="matplotlib.axis_4"><g id="ytick_7"><g id="line2d_37"><path d="M397.32 11.7 701.376 11.7" stroke="#B0B0B0" stroke-width="0.8" stroke-dasharray="2.96 1.28" stroke-opacity="0.3" fill="none" clip-path="url(#p33966db76a)"/></g><g id="line2d_38"><g><use x="397.32" y="11.7" width="100%" height="100%" xlink:href="#ma160b6ecfd" stroke="#000000" stroke-width="0.8"></use></g></g></g><g id="ytick_8"><g id="line2d_39"><path d="M397.32 87.8813 701.376 87.8813" stroke="#B0B0B0" stroke-width="0.8" stroke-dasharray="2.96 1.28" stroke-opacity="0.3" fill="none" clip-path="url(#p33966db76a)"/></g><g id="line2d_40"><g><use x="397.32" y="87.8813" width="100%" height="100%" xlink:href="#ma160b6ecfd" stroke="#000000" stroke-width="0.8"></use></g></g></g><g id="ytick_9"><g id="line2d_41"><path d="M397.32 164.063 701.376 164.063" stroke="#B0B0B0" stroke-width="0.8" stroke-dasharray="2.96 1.28" stroke-opacity="0.3" fill="none" clip-path="url(#p33966db76a)"/></g><g id="line2d_42"><g><use x="397.32" y="164.063" width="100%" height="100%" xlink:href="#ma160b6ecfd" stroke="#000000" stroke-width="0.8"></use></g></g></g><g id="ytick_10"><g id="line2d_43"><path d="M397.32 240.244 701.376 240.244" stroke="#B0B0B0" stroke-width="0.8" stroke-dasharray="2.96 1.28" stroke-opacity="0.3" fill="none" clip-path="url(#p33966db76a)"/></g><g id="line2d_44"><g><use x="397.32" y="240.244" width="100%" height="100%" xlink:href="#ma160b6ecfd" stroke="#000000" stroke-width="0.8"></use></g></g></g><g id="ytick_11"><g id="line2d_45"><path d="M397.32 316.425 701.376 316.425" stroke="#B0B0B0" stroke-width="0.8" stroke-dasharray="2.96 1.28" stroke-opacity="0.3" fill="none" clip-path="url(#p33966db76a)"/></g><g id="line2d_46"><g><use x="397.32" y="316.425" width="100%" height="100%" xlink:href="#ma160b6ecfd" stroke="#000000" stroke-width="0.8"></use></g></g></g><g id="ytick_12"><g id="line2d_47"><path d="M397.32 392.607 701.376 392.607" stroke="#B0B0B0" stroke-width="0.8" stroke-dasharray="2.96 1.28" stroke-opacity="0.3" fill="none" clip-path="url(#p33966db76a)"/></g><g id="line2d_48"><g><use x="397.32" y="392.607" width="100%" height="100%" xlink:href="#ma160b6ecfd" stroke="#000000" stroke-width="0.8"></use></g></g></g><g id="text_23"><g transform="matrix(7.34788e-18 -0.12 -0.12 -7.34788e-18 387.259 261.058)"><use width="100%" height="100%" xlink:href="#Roboto-Regular-413"></use><use width="100%" height="100%" xlink:href="#Roboto-Regular-43b" transform="translate(55.6152 0)"></use><use width="100%" height="100%" xlink:href="#Roboto-Regular-443" transform="translate(113.428 0)"></use><use width="100%" height="100%" xlink:href="#Roboto-Regular-431" transform="translate(160.742 0)"></use><use width="100%" height="100%" xlink:href="#Roboto-Regular-438" transform="translate(216.016 0)"></use><use width="100%" height="100%" xlink:href="#Roboto-Regular-43d" transform="translate(273.73 0)"></use><use width="100%" height="100%" xlink:href="#Roboto-Regular-430" transform="translate(331.396 0)"></use><use width="100%" height="100%" xlink:href="#Roboto-Regular-2c" transform="translate(385.791 0)"></use><use width="100%" height="100%" xlink:href="#Roboto-Regular-20" transform="translate(405.42 0)"></use><use width="100%" height="100%" xlink:href="#Roboto-Regular-43c" transform="translate(430.176 0)"></use></g></g></g><g id="line2d_49"><path d="M439.76-1 439.737-0.48901 439.064 0.272803 437.658 1.03462 437.962 1.79643 438.062 2.55824 437.072 3.32006 439.874 4.84368 438.629 5.60549 439.769 6.36731 441.732 7.12912 438.757 8.65275 438.549 9.41456 438.946 10.1764 439.641 10.9382 441.594 11.7 441.924 12.4618 440.06 13.2236 438.959 13.9854 436.883 14.7473 435.327 15.5091 434.12 16.2709 433.562 17.0327 433.94 17.7945 436.589 19.3181 435.849 20.0799 434.671 20.8418 435.18 21.6036 436.009 22.3654 438.68 23.1272 440.656 23.889 440.842 24.6508 442.626 25.4126 441.931 26.1744 442.626 26.9363 442.456 27.6981 439.958 28.4599 439.039 29.2217 434.389 29.9835 431.097 30.7453 433.588 31.5071 436.986 32.269 438.245 33.0308 438.847 33.7926 441.201 34.5544 441.377 35.3162 437.915 36.078 436.609 36.8398 438.21 37.6016 440.157 38.3635 441.278 39.1253 440.087 39.8871 439.363 40.6489 438.959 41.4107 436.112 42.1725 429.272 44.458 431.088 45.2198 433.967 45.9816 432.881 46.7434 433.342 47.5052 435.805 48.267 437.144 49.0288 438.854 49.7907 439.466 50.5525 440.234 51.3143 443.232 52.0761 443.184 52.8379 439.824 53.5997 439.773 55.1233 437.589 55.8852 434.771 56.647 431.277 57.4088 428.494 58.1706 428.266 58.9324 428.58 59.6942 427.059 60.456 425.823 61.2179 426.889 61.9797 427.187 62.7415 425.186 63.5033 424.484 64.2651 426.406 65.0269 429.317 65.7887 431.287 66.5505 431.357 67.3124 432.103 68.0742 439.107 69.5978 440.987 70.3596 441.442 71.1214 439.652 71.8832 439.876 72.6451 442.573 73.4069 442.601 74.1687 439.914 74.9305 440.248 75.6923 442.275 76.4541 443.78 77.2159 443.063 77.9777 436.651 78.7396 427.316 81.025 425.897 81.7868 423.082 82.5486 424.001 83.3104 425.769 84.0723 427.063 84.8341 429.359 85.5959 429.004 86.3577 429.081 87.1195 430.125 87.8813 429.497 88.6431 429.013 90.1668 428.908 90.9286 429.654 91.6904 433.023 92.4522 435.451 93.214 429.113 94.7376 425.385 96.2613 427.06 97.0231 429.11 97.7849 425.222 99.3085 427.009 100.07 429.113 100.832 429.151 101.594 428.7 102.356 426.91 103.118 427.284 103.879 429.315 104.641 429.747 105.403 429.468 106.165 428.111 106.927 427.723 107.688 427.874 108.45 428.799 109.974 428.758 110.736 425.238 113.021 425.357 114.545 424.806 115.307 424.47 116.068 424.851 116.83 426.004 117.592 427.557 118.354 431.771 119.877 433.882 120.639 429.478 122.163 428.851 122.925 428.96 123.687 427.355 124.448 426.558 125.21 425.927 125.972 427.855 126.734 431.778 127.496 431.647 128.257 429.213 129.019 428.281 129.781 427.781 130.543 426.013 131.305 425.508 132.066 426.292 132.828 426.369 133.59 427.602 134.352 428.38 135.114 426.494 135.876 425.623 136.637 425.725 137.399 426.834 138.161 429.2 138.923 429.921 139.685 431.695 140.446 433.879 141.208 436.71 141.97 438.244 142.732 437.774 143.494 436.486 144.255 435.782 145.017 436.979 145.779 437.476 146.541 434.578 148.065 434.235 148.826 434.837 149.588 434.802 150.35 434.219 151.112 433.393 151.874 433.223 152.635 434.052 153.397 432.313 154.159 429.742 154.921 431.641 155.683 436.16 156.445 435.689 157.206 431.971 157.968 430.619 158.73 429.636 159.492 429.415 161.015 429.047 161.777 427.702 162.539 427.756 163.301 431.571 164.063 434.322 164.824 432.173 165.586 427.398 166.348 426.2 167.11 434.687 168.634 435.574 169.395 435.295 170.157 434.873 170.919 433.63 171.681 434.197 172.443 433.998 173.204 431.558 173.966 428.81 175.49 426.607 176.252 426.444 177.013 428.532 177.775 429.749 178.537 429.304 179.299 427.843 180.061 427.068 180.823 427.933 181.584 427.517 182.346 426.05 183.108 425.486 183.87 426.191 184.632 428.25 185.393 427.895 186.155 426.735 186.917 426.361 187.679 428.753 189.202 430.498 189.964 434.069 190.726 435.129 191.488 433.419 192.25 431.325 193.012 427.831 193.773 425.717 194.535 426.976 195.297 428.779 196.059 428.327 196.821 426.162 197.582 424.731 198.344 426.476 199.106 428.555 199.868 428.164 200.63 427.165 201.391 427.789 202.153 428.212 202.915 427.77 203.677 426.348 204.439 424.465 205.201 424.987 205.962 427.994 206.724 430.476 207.486 430.659 208.248 430.252 209.01 430.262 209.771 430.659 211.295 428.436 212.057 426.617 212.819 426.826 213.58 426.544 214.342 426.678 215.104 428.26 215.866 428.875 216.628 427.044 217.39 429.084 218.151 429.036 218.913 428.27 219.675 430.224 220.437 437.414 221.96 436.472 222.722 430.701 223.484 427.892 224.246 427.271 225.008 426.323 225.769 426.659 226.531 426.506 227.293 426.538 228.055 427.486 228.817 428.895 229.579 429.17 230.34 426.887 231.102 425.913 231.864 426.538 232.626 426.275 233.388 426.173 234.149 426.304 234.911 427.656 235.673 429.254 236.435 429.987 237.197 429.811 237.958 427.579 238.72 426.948 239.482 430.628 240.244 437.645 241.006 440.969 241.768 441.103 242.529 444.117 243.291 445.638 244.053 444.514 244.815 445.565 245.577 443.762 246.338 440.098 247.1 440.043 247.862 443.742 249.386 443.384 250.148 439.861 250.909 437.904 251.671 439.682 252.433 439.816 253.195 438.535 253.957 435.954 254.718 432.729 255.48 430.955 256.242 431.224 257.004 434.439 257.766 438.183 258.527 439.416 259.289 439.563 260.051 439.941 260.813 439.39 261.575 437.514 262.337 436.021 263.098 435.589 263.86 436.278 264.622 442.039 266.907 442.241 267.669 439.323 268.431 437.943 269.193 438.497 269.955 439.663 270.716 439.813 271.478 437.937 272.24 430.395 274.526 428.265 275.287 424.54 276.049 422.955 276.811 423.846 278.335 425.962 279.096 426.962 279.858 430.456 280.62 435.823 281.382 438.481 282.144 436.233 282.905 432.848 283.667 431.686 284.429 430.786 285.191 428.72 286.715 427.01 288.238 426.004 289 426.363 289.762 428.019 290.524 428.054 291.285 426.376 292.047 426.6 292.809 427.862 293.571 428.458 295.094 429.479 295.856 432.243 296.618 432.675 297.38 429.918 298.142 429.214 298.904 428.775 299.665 427.311 300.427 426.12 301.189 427.411 301.951 430.751 302.713 428.791 303.474 426.017 304.236 427.465 304.998 427.481 305.76 427.315 306.522 428.215 307.284 428.266 308.045 431.785 309.569 432.673 310.331 432.423 311.093 431.142 311.854 425.557 313.378 425.025 314.14 426.633 314.902 428.567 315.663 430.088 316.425 430.742 317.187 429.557 317.949 427.943 318.711 423.321 320.234 428.023 321.758 427.405 322.52 427.997 323.282 429.227 324.043 431.04 324.805 431.584 325.567 429.909 326.329 430.165 327.091 431.366 327.852 428.881 329.376 429.554 330.138 429.045 330.9 427.671 331.662 427.594 332.423 428.013 333.185 427.639 333.947 426.828 334.709 425.346 335.471 424.721 336.232 424.567 336.994 428.58 338.518 426.829 340.041 428.651 340.803 429.637 341.565 428.795 342.327 425.714 343.851 425.372 344.612 426.355 345.374 428.725 346.136 429.849 346.898 425.138 348.421 426.489 349.183 428.318 349.945 427.581 351.469 426.499 352.23 424.971 352.992 425.939 353.754 427.232 354.516 425.564 355.278 426.092 356.04 429.487 356.801 431.194 357.563 431.735 358.325 429.196 359.087 427.351 359.849 429.471 360.61 429.119 361.372 427.245 362.134 426.701 362.896 428.059 363.658 427.729 364.419 426.317 365.181 426.896 365.943 427.665 367.467 426.016 368.99 428.379 369.752 428.652 370.514 426.762 371.276 427.089 372.038 428.767 372.799 429.398 373.561 432.011 374.323 436.892 375.085 440.562 375.847 441.001 376.608 440.463 377.37 439.784 378.132 437.462 378.894 435.07 380.418 431.637 381.179 429.084 381.941 430.135 382.703 432.277 383.465 441.677 384.988 442.205 385.75 440.697 386.512 438.586 387.274 435.144 388.036 433.421 388.798 437.392 389.559 439.768 390.321 434.955 391.083 432.274 391.845 432.412 392.607 425.949 394.13 427.115 394.892 427.176 395.654 425.123 396.416 423.957 397.177 423.964 397.939 425.325 398.701 427.233 400.225 428.229 400.987 429.005 401.748 429.597 402.51 428.604 403.272 427.387 404.034 427.134 404.796 425.703 406.319 426.359 407.081 431.858 408.605 430.212 409.366 427.506 410.128 428.275 410.89 433.018 412.414 432.265 413.176 429.38 413.937 429.841 414.699 432.079 415.461 432.672 416.223 430.821 416.985 429.511 417.746 429.995 418.508 429.831 419.27 429.072 420.032 430.462 420.794 430.776 421.555 427.359 422.317 425.229 423.079 426.376 423.841 425.982 424.603 424.121 425.365 423.333 426.126 422.923 426.888 421.956 427.65 421.476 428.412 422.293 429.174 422.827 429.935 422.664 430.697 423.279 431.459 424.989 432.221 427.161 432.983 427.34 433.744 425.796 434.506 424.39 436.03 424.339 436.792 426.136 437.554 427.34 438.315 427.202 439.077 427.878 439.839 428.964 440.601 428.637 441.363 426.402 442.124 427.42 442.886 431.206 443.648 429.893 444.41 426.514 445.172 429.659 445.934 430.511 446.695 428.711 447.457 427.331 448.981 428.781 449.743 430.934 450.504 429.893 451.266 427.907 452.028 428.039 452.79 427.177 453.552 426.767 454.313 429.07 455.075 432.362 455.837 433.662 456.599 433.688 457.361 434.098 458.884 431.398 460.408 431.357 461.17 431.936 461.932 432.836 462.693 431.574 463.455 430.028 464.217 432.609 464.979 434.71 465.741 433.73 466.502 433.599 467.264 432.663 468.026 430.495 468.788 428.964 469.55 428.436 470.312 428.42 471.073 428.737 471.835 428.763 472.597 426.579 473.359 427.094 474.121 428.99 474.882 429.195 475.644 430.662 476.406 431.876 477.168 429.922 477.93 427.322 478.691 426.166 480.215 425.24 480.977 425.24 481.739 425.685 482.501 426.547 483.262 427.834 484.024 430.175 484.786 431.713 485.548 432.347 486.31 433.794 487.071 434.364 487.833 432.59 488.595 430.143 489.357 431.505 490.119 435.485 490.88 437.894 491.642 439.178 492.404 440.152 493.166 441.535 493.928 441.566 494.606 441.566 494.606" stroke="#000000" stroke-width="1.5" stroke-linecap="square" fill="none" clip-path="url(#p33966db76a)"/></g><g id="patch_9"><path d="M397.32 452.531 397.32 9.06413" stroke="#000000" stroke-width="0.8" stroke-linecap="square" stroke-linejoin="miter" fill="none"/></g><g id="patch_10"><path d="M701.376 452.531 701.376 9.06413" stroke="#000000" stroke-width="0.8" stroke-linecap="square" stroke-linejoin="miter" fill="none"/></g><g id="patch_11"><path d="M397.32 452.531 701.376 452.531" stroke="#000000" stroke-width="0.8" stroke-linecap="square" stroke-linejoin="miter" fill="none"/></g><g id="patch_12"><path d="M397.32 9.06413 701.376 9.06413" stroke="#000000" stroke-width="0.8" stroke-linecap="square" stroke-linejoin="miter" fill="none"/></g><g id="legend_2"><g id="patch_13"><path d="M562.425 54.5816 692.976 54.5816C694.576 54.5816 695.376 53.7816 695.376 52.1816L695.376 17.4641C695.376 15.8641 694.576 15.0641 692.976 15.0641L562.425 15.0641C560.825 15.0641 560.025 15.8641 560.025 17.4641L560.025 52.1816C560.025 53.7816 560.825 54.5816 562.425 54.5816Z" stroke="#CCCCCC" stroke-linejoin="miter" fill="#FFFFFF" opacity="0.8"/></g><g id="line2d_50"><path d="M564.825 25.2904 576.825 25.2904 588.825 25.2904" stroke="#000000" stroke-width="1.5" stroke-linecap="square" fill="none"/></g><g id="text_24"><g transform="matrix(0.12 0 0 -0.12 598.425 29.4904)"><defs><path d="M416 1847C416 2317.67 479 2769.67 605 3203 731 3636.33 919 4030 1169 4384 1419 4738.67 1678.33 4988.67 1947 5134L2066 4753C1761.33 4519.67 1511.67 4163.33 1317 3684 1122.33 3205.33 1015.67 2669 997 2075L994 1809C994 1005 1140.67 307.333 1434-284 1611.33-638.667 1822-916 2066-1116L1947-1469C1669.67-1315 1405-1056.67 1153-694 661.667 14.6667 416 861.667 416 1847Z" id="Roboto-Regular-28" transform="scale(0.015625 0.015625)"/><path d="M284 1722C284 2053.33 349 2351.33 479 2616 609.667 2880.67 791 3084.67 1023 3228 1255.67 3372 1521 3444 1819 3444 2279 3444 2651.33 3284.67 2936 2966 3220.67 2647.33 3363 2223.33 3363 1694L3363 1653C3363 1323.67 3299.67 1028.33 3173 767 3047 505.667 2866.67 302 2632 156 2398 10 2129-63 1825-63 1367-63 995.667 96.3333 711 415 426.333 734.333 284 1156.33 284 1681L284 1722ZM866 1653C866 1278.33 953 977.333 1127 750 1301 522.667 1533.67 409 1825 409 2119 409 2352.33 524 2525 754 2697.67 984.667 2784 1307.33 2784 1722 2784 2092.67 2696 2393 2520 2623 2344 2853.67 2110.33 2969 1819 2969 1533.67 2969 1303.33 2855.33 1128 2628 953.333 2401.33 866 2076.33 866 1653Z" id="Roboto-Regular-43e" transform="scale(0.015625 0.015625)"/><path d="M450 303C450 403 479.667 486.333 539 553 598.333 619.667 687.333 653 806 653 924.667 653 1014.67 619.667 1076 553 1138 486.333 1169 403 1169 303 1169 207 1138 126.667 1076 62 1014.67-2 924.667-34 806-34 687.333-34 598.333-2 539 62 479.667 126.667 450 207 450 303Z" id="Roboto-Regular-2e" transform="scale(0.015625 0.015625)"/><path d="M1772 1816C1772 1351.33 1711 906 1589 480 1467 54 1280.33-339.333 1029-700 778.333-1060.67 515.667-1317 241-1469L119-1116C439.667-870 697.333-488.333 892 29 1086.67 547 1186.33 1121.67 1191 1753L1191 1853C1191 2290.33 1145 2697 1053 3073 961.667 3449.67 834 3786.67 670 4084 506.667 4382 323 4614.33 119 4781L241 5134C515.667 4982 777.333 4728 1026 4372 1275.33 4016 1462 3623.33 1586 3194 1710 2764.67 1772 2305.33 1772 1816Z" id="Roboto-Regular-29" transform="scale(0.015625 0.015625)"/></defs><use width="100%" height="100%" xlink:href="#Roboto-Regular-413"></use><use width="100%" height="100%" xlink:href="#Roboto-Regular-418" transform="translate(55.6152 0)"></use><use width="100%" height="100%" xlink:href="#Roboto-Regular-421" transform="translate(126.904 0)"></use><use width="100%" height="100%" xlink:href="#Roboto-Regular-20" transform="translate(191.992 0)"></use><use width="100%" height="100%" xlink:href="#Roboto-Regular-47" transform="translate(216.748 0)"></use><use width="100%" height="100%" xlink:href="#Roboto-Regular-4b" transform="translate(284.863 0)"></use><use width="100%" height="100%" xlink:href="#Roboto-Regular-20" transform="translate(347.559 0)"></use><use width="100%" height="100%" xlink:href="#Roboto-Regular-28" transform="translate(372.314 0)"></use><use width="100%" height="100%" xlink:href="#Roboto-Regular-441" transform="translate(406.494 0)"></use><use width="100%" height="100%" xlink:href="#Roboto-Regular-20" transform="translate(458.838 0)"></use><use width="100%" height="100%" xlink:href="#Roboto-Regular-43a" transform="translate(483.594 0)"></use><use width="100%" height="100%" xlink:href="#Roboto-Regular-43e" transform="translate(537.598 0)"></use><use width="100%" height="100%" xlink:href="#Roboto-Regular-440" transform="translate(594.629 0)"></use><use width="100%" height="100%" xlink:href="#Roboto-Regular-440" transform="translate(650.732 0)"></use><use width="100%" height="100%" xlink:href="#Roboto-Regular-2e" transform="translate(706.836 0)"></use><use width="100%" height="100%" xlink:href="#Roboto-Regular-29" transform="translate(733.154 0)"></use></g></g><g id="PathCollection_4"><g><use x="576.825" y="44.1941" width="100%" height="100%" xlink:href="#m9645fff414" stroke="#0000FF" stroke-opacity="0.7" fill="#0000FF" fill-opacity="0.7"></use></g></g><g id="text_25"><g transform="matrix(0.12 0 0 -0.12 598.425 47.3441)"><use width="100%" height="100%" xlink:href="#Roboto-Regular-41e"></use><use width="100%" height="100%" xlink:href="#Roboto-Regular-431" transform="translate(68.75 0)"></use><use width="100%" height="100%" xlink:href="#Roboto-Regular-440" transform="translate(124.023 0)"></use><use width="100%" height="100%" xlink:href="#Roboto-Regular-430" transform="translate(180.127 0)"></use><use width="100%" height="100%" xlink:href="#Roboto-Regular-437" transform="translate(234.521 0)"></use><use width="100%" height="100%" xlink:href="#Roboto-Regular-446" transform="translate(285.303 0)"></use><use width="100%" height="100%" xlink:href="#Roboto-Regular-44b" transform="translate(344.531 0)"></use><use width="100%" height="100%" xlink:href="#Roboto-Regular-20" transform="translate(422.168 0)"></use><use width="100%" height="100%" xlink:href="#Roboto-Regular-47" transform="translate(446.924 0)"></use><use width="100%" height="100%" xlink:href="#Roboto-Regular-4b" transform="translate(515.039 0)"></use></g></g></g></g></g></svg>